<svg width="26" height="26" viewBox="0 0 26 26" fill="none" xmlns="http://www.w3.org/2000/svg">
<g clip-path="url(#clip0_1598_651)">
<path d="M22.6447 8.96025C23.1959 8.242 23.5274 7.3463 23.5274 6.37065C23.5274 4.01765 21.6196 2.1099 19.266 2.1099C17.849 2.1099 16.5971 2.8041 15.8223 3.86815H10.177C9.40221 2.8041 8.15031 2.1099 6.73331 2.1099C4.38031 2.1099 2.47191 4.01765 2.47191 6.37065C2.47191 7.35735 2.81056 8.26345 3.37346 8.9856C2.38156 10.6554 1.80371 12.6003 1.80371 14.6855C1.80371 20.878 6.82366 23.8895 13.0162 23.8895C19.2088 23.8895 24.2287 20.8773 24.2287 14.6855C24.2287 12.5899 23.6463 10.636 22.6447 8.96025Z" fill="#FFC84D"/>
<path d="M15.5041 12.5235L16.1112 15.0982C16.5818 17.0937 15.0679 19.0054 13.0178 19.0054C10.9677 19.0054 9.45453 17.0931 9.92448 15.0982L10.5316 12.5235C10.5927 12.2655 10.8228 12.0835 11.0873 12.0835H14.9483C15.2135 12.0835 15.4436 12.2655 15.5041 12.5235Z" fill="white"/>
<path d="M15.0209 13.3848C15.0209 13.9542 14.4905 14.4683 13.9751 14.833C13.4011 15.2392 12.6335 15.2392 12.0595 14.833C11.5447 14.4683 11.0137 13.9542 11.0137 13.3848V13.1378C11.0137 12.8986 11.208 12.7042 11.4472 12.7042H14.5867C14.8259 12.7042 15.0203 12.8986 15.0203 13.1378L15.0209 13.3848Z" fill="black"/>
<path d="M9.48103 9.50235C8.77643 9.50235 8.20508 10.0737 8.20508 10.7783C8.20508 11.4829 8.77643 12.0542 9.48103 12.0542C10.1856 12.0542 10.757 11.4829 10.757 10.7783C10.757 10.0737 10.1856 9.50235 9.48103 9.50235Z" fill="black"/>
<path d="M16.5191 9.50235C15.8145 9.50235 15.2432 10.0737 15.2432 10.7783C15.2432 11.4829 15.8145 12.0542 16.5191 12.0542C17.2237 12.0542 17.7951 11.4829 17.7951 10.7783C17.7951 10.0737 17.2237 9.50235 16.5191 9.50235Z" fill="black"/>
<path d="M13.363 14.9578H12.6714V16.681H13.363V14.9578Z" fill="black"/>
</g>
<defs>
<clipPath id="clip0_1598_651">
<rect width="26" height="26" fill="white"/>
</clipPath>
</defs>
</svg>
